<svg id="Layer_1" data-name="Layer 1" xmlns="http://www.w3.org/2000/svg" viewBox="0 0 295.86 295.86"><defs><style>.cls-1{fill-opacity:0;}.cls-2{fill:#ea4c89;}.cls-3{fill:#c32361;}</style></defs><title>dribbble-logo</title><rect class="cls-1" width="295.86" height="295.86"/><circle class="cls-2" cx="147.93" cy="147.93" r="143.31"/><rect class="cls-1" width="295.86" height="295.86"/><path class="cls-3" d="M256,108.07a147.93,147.93,0,0,0,0,295.86c81.51,0,147.93-66.26,147.93-147.93S337.51,108.07,256,108.07Zm97.71,68.19a125.78,125.78,0,0,1,28.56,78.62c-4.17-.8-45.89-9.31-87.93-4-1-2.09-1.77-4.33-2.73-6.58-2.57-6.1-5.46-12.35-8.34-18.29C329.81,207.06,351,179.79,353.71,176.26ZM256,129.89a126.07,126.07,0,0,1,83.75,31.77c-2.25,3.21-21.34,28.72-66.27,45.57a682.1,682.1,0,0,0-47.17-74A128.5,128.5,0,0,1,256,129.89Zm-53.75,11.87a797.4,797.4,0,0,1,46.85,73,473.85,473.85,0,0,1-116.81,15.4A126.94,126.94,0,0,1,202.25,141.76Zm-72.68,114.4v-3.85c5.46.16,66.75,1,129.8-18,3.69,7.06,7.06,14.28,10.27,21.5-1.61.48-3.37,1-5,1.44-65.14,21-99.8,78.46-102.69,83.27A126.06,126.06,0,0,1,129.57,256.16ZM256,382.43a125.47,125.47,0,0,1-77.5-26.63c2.25-4.65,27.92-54.07,99.16-78.94.32-.16.48-.16.8-.32a522.33,522.33,0,0,1,27,95.79A124.27,124.27,0,0,1,256,382.43Zm70.44-21.66c-1.28-7.7-8-44.6-24.55-90,39.63-6.26,74.29,4,78.62,5.46A125.27,125.27,0,0,1,326.44,360.77Z" transform="translate(-108.07 -108.07)"/></svg>